<?xml version="1.0" encoding="UTF-8"?>
<!DOCTYPE svg PUBLIC "-//W3C//DTD SVG 1.1//EN" "http://www.w3.org/Graphics/SVG/1.1/DTD/svg11.dtd">
<svg xmlns="http://www.w3.org/2000/svg" version="1.1" width="206px" height="206px" style="shape-rendering:geometricPrecision; text-rendering:geometricPrecision; image-rendering:optimizeQuality; fill-rule:evenodd; clip-rule:evenodd" xmlns:xlink="http://www.w3.org/1999/xlink">
<g><path style="opacity:1" fill="#232f3c" d="M -0.5,-0.5 C 68.1667,-0.5 136.833,-0.5 205.5,-0.5C 205.5,68.1667 205.5,136.833 205.5,205.5C 136.833,205.5 68.1667,205.5 -0.5,205.5C -0.5,136.833 -0.5,68.1667 -0.5,-0.5 Z"/></g>
<g><path style="opacity:1" fill="#1e3334" d="M 53.5,89.5 C 52.1667,89.5 50.8333,89.5 49.5,89.5C 47.712,89.2148 46.0453,89.5481 44.5,90.5C 43.9234,92.5499 42.5901,93.5499 40.5,93.5C 39.5,92.8333 38.5,92.1667 37.5,91.5C 37.5,91.1667 37.5,90.8333 37.5,90.5C 39.0443,90.7031 40.3777,91.3698 41.5,92.5C 42.4287,91.3112 42.762,89.9778 42.5,88.5C 37.334,87.7909 32.334,86.6243 27.5,85C 28.1079,84.1301 28.9412,83.6301 30,83.5C 31.9525,84.5447 33.9525,84.5447 36,83.5C 38.5895,84.9863 41.4228,85.6529 44.5,85.5C 44.67,84.1779 44.3366,83.0113 43.5,82C 39.4592,81.8265 35.4592,81.3265 31.5,80.5C 38.3232,79.5388 44.9899,79.5388 51.5,80.5C 52.8333,81.8333 52.8333,83.1667 51.5,84.5C 50.1667,85.5 48.8333,86.5 47.5,87.5C 49.6309,88.1687 51.6309,88.8354 53.5,89.5 Z"/></g>
<g><path style="opacity:1" fill="#1c3e2b" d="M 81.5,92.5 C 81.5,93.5 81.5,94.5 81.5,95.5C 80.8333,95.5 80.1667,95.5 79.5,95.5C 79.5,93.8333 79.5,92.1667 79.5,90.5C 77.4862,90.3915 75.8195,91.0582 74.5,92.5C 74.1667,92.5 73.8333,92.5 73.5,92.5C 73.1788,90.9519 72.1788,90.2852 70.5,90.5C 70.5,92.1667 70.5,93.8333 70.5,95.5C 69.8461,91.6839 67.5128,90.0172 63.5,90.5C 63.366,92.2915 63.6993,93.9582 64.5,95.5C 63.8826,95.6107 63.3826,95.944 63,96.5C 62.8227,100.356 62.3227,104.023 61.5,107.5C 61.5,101.5 61.5,95.5 61.5,89.5C 60.1667,89.5 58.8333,89.5 57.5,89.5C 58.3984,88.8423 59.3984,88.1757 60.5,87.5C 58.8333,86.8333 57.1667,86.1667 55.5,85.5C 56.3601,83.0693 58.0268,81.736 60.5,81.5C 60.5,82.5 60.5,83.5 60.5,84.5C 61.5,84.5 62.5,84.5 63.5,84.5C 63.5,85.8333 63.5,87.1667 63.5,88.5C 66.0379,88.4928 68.5379,88.1595 71,87.5C 73.9642,89.9653 76.9642,89.9653 80,87.5C 81.2692,88.9047 81.7692,90.5714 81.5,92.5 Z"/></g>
<g><path style="opacity:1" fill="#1d722b" d="M 22.5,90.5 C 27.4001,89.2001 32.4001,89.2001 37.5,90.5C 37.5,90.8333 37.5,91.1667 37.5,91.5C 33.2315,90.6274 28.8982,90.2941 24.5,90.5C 23.8333,90.5 23.1667,90.5 22.5,90.5 Z"/></g>
<g><path style="opacity:1" fill="#737a81" d="M 101.5,90.5 C 100.167,90.5 98.8333,90.5 97.5,90.5C 97.5,98.8333 97.5,107.167 97.5,115.5C 96.507,107.016 96.1736,98.3494 96.5,89.5C 98.4147,89.2155 100.081,89.5489 101.5,90.5 Z"/></g>
<g><path style="opacity:1" fill="#ebeef0" d="M 144.5,89.5 C 148.741,88.7498 152.074,90.0831 154.5,93.5C 154.113,94.7199 153.28,95.3865 152,95.5C 144.125,92.7079 141.625,95.2079 144.5,103C 147.775,103.07 150.942,103.237 154,103.5C 154.445,105.594 153.612,107.094 151.5,108C 140.831,109.662 136.664,105.162 139,94.5C 140.352,92.251 142.185,90.5844 144.5,89.5 Z"/></g>
<g><path style="opacity:1" fill="#0ecf11" d="M 24.5,90.5 C 28.8982,90.2941 33.2315,90.6274 37.5,91.5C 38.5,92.1667 39.5,92.8333 40.5,93.5C 41.2653,96.0961 41.5987,98.7628 41.5,101.5C 40.4419,104.397 38.4419,106.564 35.5,108C 33.6131,108.78 31.9464,108.613 30.5,107.5C 29.4324,106.566 28.099,106.232 26.5,106.5C 26.8134,109.247 26.48,111.914 25.5,114.5C 24.914,114.291 24.414,113.957 24,113.5C 23.2019,105.754 23.3686,98.0873 24.5,90.5 Z"/></g>
<g><path style="opacity:1" fill="#edf1f2" d="M 97.5,115.5 C 97.5,107.167 97.5,98.8333 97.5,90.5C 98.8333,90.5 100.167,90.5 101.5,90.5C 101.56,91.0431 101.893,91.3764 102.5,91.5C 110.102,88.3016 114.435,90.8016 115.5,99C 115.17,106.95 111.17,109.783 103.5,107.5C 102.52,110.086 102.187,112.753 102.5,115.5C 100.833,115.5 99.1667,115.5 97.5,115.5 Z"/></g>
<g><path style="opacity:1" fill="#145422" d="M 49.5,89.5 C 48.2347,90.4793 46.9014,91.4793 45.5,92.5C 44.5713,93.6888 44.238,95.0222 44.5,96.5C 42.7868,97.6354 42.1201,99.302 42.5,101.5C 42.1667,101.5 41.8333,101.5 41.5,101.5C 41.5987,98.7628 41.2653,96.0961 40.5,93.5C 42.5901,93.5499 43.9234,92.5499 44.5,90.5C 46.0453,89.5481 47.712,89.2148 49.5,89.5 Z"/></g>
<g><path style="opacity:1" fill="#eef1f3" d="M 131.5,90.5 C 132.833,90.5 134.167,90.5 135.5,90.5C 135.5,96.1667 135.5,101.833 135.5,107.5C 134.167,107.5 132.833,107.5 131.5,107.5C 120.718,110.566 116.218,106.232 118,94.5C 121.25,89.4789 125.416,88.4789 130.5,91.5C 131.107,91.3764 131.44,91.0431 131.5,90.5 Z"/></g>
<g><path style="opacity:1" fill="#179d1f" d="M 33.5,94.5 C 31.8561,94.2865 30.3561,94.6198 29,95.5C 28.5034,97.8098 28.3367,100.143 28.5,102.5C 30.2646,103.461 32.2646,103.795 34.5,103.5C 26.8853,105.379 24.552,102.379 27.5,94.5C 29.6431,93.2463 31.6431,93.2463 33.5,94.5 Z"/></g>
<g><path style="opacity:1" fill="#3d1d5d" d="M 33.5,95.5 C 33.8333,95.5 34.1667,95.5 34.5,95.5C 34.5,97.5 34.5,99.5 34.5,101.5C 33.3065,101.03 32.6399,100.03 32.5,98.5C 32.5195,97.2739 32.8529,96.2739 33.5,95.5 Z"/></g>
<g><path style="opacity:1" fill="#08d809" d="M 49.5,89.5 C 50.8333,89.5 52.1667,89.5 53.5,89.5C 52.7075,91.8853 51.3742,93.8853 49.5,95.5C 47.6921,96.9179 47.0254,98.9179 47.5,101.5C 47.3605,103.337 46.6939,103.67 45.5,102.5C 44.6518,100.591 44.3184,98.5914 44.5,96.5C 44.238,95.0222 44.5713,93.6888 45.5,92.5C 46.9014,91.4793 48.2347,90.4793 49.5,89.5 Z"/></g>
<g><path style="opacity:1" fill="#eef2f4" d="M 162.5,89.5 C 169.881,89.548 173.548,93.2147 173.5,100.5C 169.445,100.176 165.445,100.509 161.5,101.5C 162.348,102.991 163.681,103.658 165.5,103.5C 167.524,102.979 169.524,102.812 171.5,103C 172.412,105.488 171.412,107.155 168.5,108C 158.313,109.138 154.48,104.638 157,94.5C 158.107,91.887 159.94,90.2203 162.5,89.5 Z"/></g>
<g><path style="opacity:1" fill="#383c40" d="M 162.5,94.5 C 164.977,94.0508 166.977,94.7175 168.5,96.5C 166.167,97.8333 163.833,97.8333 161.5,96.5C 161.863,95.8165 162.196,95.1499 162.5,94.5 Z"/></g>
<g><path style="opacity:1" fill="#eff2f4" d="M 81.5,95.5 C 81.5,94.5 81.5,93.5 81.5,92.5C 85.6294,88.7151 89.9627,88.5484 94.5,92C 93.7894,93.2547 92.956,94.4214 92,95.5C 90.4157,94.1387 88.5824,93.472 86.5,93.5C 86.281,94.675 86.6143,95.675 87.5,96.5C 93.4275,96.9136 95.5942,99.9136 94,105.5C 90.3841,109.107 86.3841,109.441 82,106.5C 81.2172,104.681 81.7172,103.348 83.5,102.5C 85.7369,104.817 88.0703,104.983 90.5,103C 88.2457,101.744 85.9123,100.577 83.5,99.5C 82.2949,98.4231 81.6282,97.0898 81.5,95.5 Z"/></g>
<g><path style="opacity:1" fill="#272e3a" d="M 103.5,94.5 C 109.989,94.1563 111.989,96.9896 109.5,103C 102.215,103.934 100.215,101.101 103.5,94.5 Z"/></g>
<g><path style="opacity:1" fill="#2d333d" d="M 124.5,94.5 C 131.444,94.2723 133.11,97.1056 129.5,103C 122.421,103.527 120.754,100.694 124.5,94.5 Z"/></g>
<g><path style="opacity:1" fill="#179923" d="M 53.5,89.5 C 54.8333,89.5 56.1667,89.5 57.5,89.5C 58.8333,89.5 60.1667,89.5 61.5,89.5C 61.5,95.5 61.5,101.5 61.5,107.5C 61.5,107.833 61.5,108.167 61.5,108.5C 58.7938,108.425 56.1272,108.092 53.5,107.5C 55.6618,106.583 57.9952,106.583 60.5,107.5C 60.5,101.833 60.5,96.1667 60.5,90.5C 57.755,90.373 55.755,91.5397 54.5,94C 55.056,94.3826 55.3893,94.8826 55.5,95.5C 53.4513,94.3586 51.4513,94.3586 49.5,95.5C 51.3742,93.8853 52.7075,91.8853 53.5,89.5 Z"/></g>
<g><path style="opacity:1" fill="#193e2d" d="M 64.5,95.5 C 66.7187,98.7828 68.3854,102.449 69.5,106.5C 69.1992,108.422 68.5325,110.088 67.5,111.5C 67.1667,111.5 66.8333,111.5 66.5,111.5C 66.1667,110.5 65.5,109.833 64.5,109.5C 64.7151,107.226 65.3818,105.059 66.5,103C 65.669,99.8919 64.8357,100.059 64,103.5C 63.3985,100.779 63.5651,98.1128 64.5,95.5 Z"/></g>
<g><path style="opacity:1" fill="#686e76" d="M 131.5,90.5 C 132.919,89.5489 134.585,89.2155 136.5,89.5C 136.83,96.5316 136.497,103.532 135.5,110.5C 134.304,110.154 134.304,109.654 135.5,109C 133.942,108.79 132.609,108.29 131.5,107.5C 132.833,107.5 134.167,107.5 135.5,107.5C 135.5,101.833 135.5,96.1667 135.5,90.5C 134.167,90.5 132.833,90.5 131.5,90.5 Z"/></g>
<g><path style="opacity:1" fill="#223036" d="M 33.5,94.5 C 33.5,94.8333 33.5,95.1667 33.5,95.5C 32.8529,96.2739 32.5195,97.2739 32.5,98.5C 32.6399,100.03 33.3065,101.03 34.5,101.5C 32.7354,102.461 30.7354,102.795 28.5,102.5C 28.3367,100.143 28.5034,97.8098 29,95.5C 30.3561,94.6198 31.8561,94.2865 33.5,94.5 Z"/></g>
<g><path style="opacity:1" fill="#1f3736" d="M 55.5,95.5 C 56.9157,103.437 54.249,105.437 47.5,101.5C 47.0254,98.9179 47.6921,96.9179 49.5,95.5C 51.4513,94.3586 53.4513,94.3586 55.5,95.5 Z"/></g>
<g><path style="opacity:1" fill="#144b21" d="M 34.5,95.5 C 35.8333,98.1667 35.8333,100.833 34.5,103.5C 32.2646,103.795 30.2646,103.461 28.5,102.5C 30.7354,102.795 32.7354,102.461 34.5,101.5C 34.5,99.5 34.5,97.5 34.5,95.5 Z"/></g>
<g><path style="opacity:1" fill="#11d015" d="M 53.5,107.5 C 53.5,107.833 53.5,108.167 53.5,108.5C 48.0281,108.739 44.3614,106.405 42.5,101.5C 42.1201,99.302 42.7868,97.6354 44.5,96.5C 44.3184,98.5914 44.6518,100.591 45.5,102.5C 46.6939,103.67 47.3605,103.337 47.5,101.5C 54.249,105.437 56.9157,103.437 55.5,95.5C 55.3893,94.8826 55.056,94.3826 54.5,94C 55.755,91.5397 57.755,90.373 60.5,90.5C 60.5,96.1667 60.5,101.833 60.5,107.5C 57.9952,106.583 55.6618,106.583 53.5,107.5 Z"/></g>
<g><path style="opacity:1" fill="#312751" d="M 64.5,95.5 C 63.5651,98.1128 63.3985,100.779 64,103.5C 64.8357,100.059 65.669,99.8919 66.5,103C 65.3818,105.059 64.7151,107.226 64.5,109.5C 62.8041,111.129 61.8041,110.796 61.5,108.5C 61.5,108.167 61.5,107.833 61.5,107.5C 62.3227,104.023 62.8227,100.356 63,96.5C 63.3826,95.944 63.8826,95.6107 64.5,95.5 Z"/></g>
<g><path style="opacity:1" fill="#183d2a" d="M 41.5,101.5 C 41.8333,101.5 42.1667,101.5 42.5,101.5C 44.3614,106.405 48.0281,108.739 53.5,108.5C 53.719,109.675 53.3857,110.675 52.5,111.5C 50.5623,108.921 48.729,108.921 47,111.5C 46.6905,110.234 46.1905,109.067 45.5,108C 42.4686,107.505 39.4686,107.671 36.5,108.5C 36.719,109.675 36.3857,110.675 35.5,111.5C 33.4006,109.48 31.0673,109.146 28.5,110.5C 30.7401,115.134 29.4068,117.467 24.5,117.5C 23.5,117.167 22.8333,116.5 22.5,115.5C 24.1667,115.5 25.8333,115.5 27.5,115.5C 27.5,112.833 27.5,110.167 27.5,107.5C 28.5,107.5 29.5,107.5 30.5,107.5C 31.9464,108.613 33.6131,108.78 35.5,108C 38.4419,106.564 40.4419,104.397 41.5,101.5 Z"/></g>
<g><path style="opacity:1" fill="#e3e9ed" d="M 177.5,101.5 C 181.713,101.699 183.046,103.699 181.5,107.5C 179.958,108.747 178.458,108.747 177,107.5C 176.322,105.402 176.489,103.402 177.5,101.5 Z"/></g>
<g><path style="opacity:1" fill="#14961c" d="M 22.5,90.5 C 23.1667,90.5 23.8333,90.5 24.5,90.5C 23.3686,98.0873 23.2019,105.754 24,113.5C 24.414,113.957 24.914,114.291 25.5,114.5C 26.48,111.914 26.8134,109.247 26.5,106.5C 28.099,106.232 29.4324,106.566 30.5,107.5C 29.5,107.5 28.5,107.5 27.5,107.5C 27.5,110.167 27.5,112.833 27.5,115.5C 25.8333,115.5 24.1667,115.5 22.5,115.5C 21.2134,107.038 21.2134,98.7047 22.5,90.5 Z"/></g>
<g><path style="opacity:1" fill="#10cd14" d="M 70.5,95.5 C 70.3505,96.552 70.5172,97.552 71,98.5C 71.6667,99.8333 72.3333,99.8333 73,98.5C 73.3333,99.1667 73.6667,99.8333 74,100.5C 74.4974,97.854 74.6641,95.1873 74.5,92.5C 75.8195,91.0582 77.4862,90.3915 79.5,90.5C 79.5,92.1667 79.5,93.8333 79.5,95.5C 76.9141,100.588 74.9141,105.922 73.5,111.5C 72.3579,113.972 70.3579,114.972 67.5,114.5C 67.5,113.5 67.5,112.5 67.5,111.5C 68.5325,110.088 69.1992,108.422 69.5,106.5C 68.3854,102.449 66.7187,98.7828 64.5,95.5C 63.6993,93.9582 63.366,92.2915 63.5,90.5C 67.5128,90.0172 69.8461,91.6839 70.5,95.5 Z"/></g>
<g><path style="opacity:1" fill="#1c8729" d="M 73.5,92.5 C 73.8333,92.5 74.1667,92.5 74.5,92.5C 74.6641,95.1873 74.4974,97.854 74,100.5C 73.6667,99.8333 73.3333,99.1667 73,98.5C 72.3333,99.8333 71.6667,99.8333 71,98.5C 70.5172,97.552 70.3505,96.552 70.5,95.5C 71.1515,96.0906 71.8182,96.7573 72.5,97.5C 73.4519,95.9547 73.7852,94.288 73.5,92.5 Z"/></g>
<g><path style="opacity:1" fill="#2d284c" d="M 73.5,92.5 C 73.7852,94.288 73.4519,95.9547 72.5,97.5C 71.8182,96.7573 71.1515,96.0906 70.5,95.5C 70.5,93.8333 70.5,92.1667 70.5,90.5C 72.1788,90.2852 73.1788,90.9519 73.5,92.5 Z"/></g>
<g><path style="opacity:1" fill="#157023" d="M 66.5,111.5 C 66.8333,111.5 67.1667,111.5 67.5,111.5C 67.5,112.5 67.5,113.5 67.5,114.5C 70.3579,114.972 72.3579,113.972 73.5,111.5C 73.1997,115.976 71.0331,117.31 67,115.5C 66.51,114.207 66.3433,112.873 66.5,111.5 Z"/></g>
<g><path style="opacity:1" fill="#292a45" d="M 22.5,115.5 C 22.8333,116.5 23.5,117.167 24.5,117.5C 29.7738,117.609 31.9405,120.276 31,125.5C 27.295,122.474 23.295,119.808 19,117.5C 18.4282,115.108 17.2616,113.108 15.5,111.5C 15.4296,109.334 16.0962,109.001 17.5,110.5C 20.2079,107.907 19.5412,106.574 15.5,106.5C 15.5,105.5 15.5,104.5 15.5,103.5C 16.5,103.5 17.5,103.5 18.5,103.5C 18.5,102.5 18.5,101.5 18.5,100.5C 17.5,100.5 16.5,100.5 15.5,100.5C 15.5,99.5 15.5,98.5 15.5,97.5C 17.1439,97.7135 18.6439,97.3802 20,96.5C 20.7636,102.04 20.5969,107.54 19.5,113C 19.7483,114.749 20.7483,115.582 22.5,115.5 Z"/></g>
</svg>
